<?xml version="1.0" encoding="UTF-8"?>
<svg version="1.1" xmlns="http://www.w3.org/2000/svg" width="128" height="128">
<path d="M0 0 C42.24 0 84.48 0 128 0 C128 42.24 128 84.48 128 128 C85.76 128 43.52 128 0 128 C0 85.76 0 43.52 0 0 Z " fill="#000000" transform="translate(0,0)"/>
<path d="M0 0 C3.02095137 3.02095137 2.73165386 6.67467603 3.125 10.75 C3.21136719 11.54921875 3.29773438 12.3484375 3.38671875 13.171875 C4.29001298 21.88938123 4.29001298 21.88938123 4 26 C0.99382731 29.00617269 -1.82381598 28.59585316 -6 29 C-4.66511872 25.40608886 -3.03977277 22.24509304 -1 19 C-4.56615383 20.63850311 -5.82710223 21.62538815 -7.5 25.25 C-7.72300781 25.85457031 -7.94601563 26.45914063 -8.17578125 27.08203125 C-9.60751314 30.41369171 -11.82243536 33.11619818 -14 36 C-14 33 -14 33 -13 31 C-13.66 30.34 -14.32 29.68 -15 29 C-11.04 22.4 -7.08 15.8 -3 9 C-3.99 9.33 -4.98 9.66 -6 10 C-6.66 10 -7.32 10 -8 10 C-8.06767578 11.18722656 -8.06767578 11.18722656 -8.13671875 12.3984375 C-9.35443917 17.47870099 -11.98168129 21.28017789 -14.8125 25.625 C-15.61397461 26.8934375 -15.61397461 26.8934375 -16.43164062 28.1875 C-18.98660595 32.17236596 -21.40952948 35.85290477 -25 39 C-23.94124926 35.59687262 -22.99097846 32.98646769 -21 30 C-20.938125 29.01 -20.87625 28.02 -20.8125 27 C-20.1730017 21.24451526 -16.19925624 16.64002984 -13 12 C-12.34 11.01 -11.68 10.02 -11 9 C-12.175625 9.7425 -12.175625 9.7425 -13.375 10.5 C-16 12 -16 12 -18 12 C-17.67 12.99 -17.34 13.98 -17 15 C-18.14453125 17.4453125 -18.14453125 17.4453125 -19.8125 20.125 C-20.62654297 21.45917969 -20.62654297 21.45917969 -21.45703125 22.8203125 C-23 25 -23 25 -25 26 C-23.125 20.125 -23.125 20.125 -22 19 C-21.97367045 15.81412427 -22.02939398 12.64296002 -22.12695312 9.45898438 C-22.15690319 7.63907734 -22.08461477 5.81818562 -22 4 C-19.24781142 1.24781142 -17.07844033 1.38384333 -13.25 0.875 C-11.43242188 0.62363281 -11.43242188 0.62363281 -9.578125 0.3671875 C-6.32639025 0.0334942 -3.26169447 -0.21935372 0 0 Z " fill="#442463" transform="translate(87,20)"/>
<path d="M0 0 C1.32 0 2.64 0 4 0 C4 1.65 4 3.3 4 5 C4.66 5 5.32 5 6 5 C6.66 3.68 7.32 2.36 8 1 C8.99 1.33 9.98 1.66 11 2 C10.47599609 2.67095703 10.47599609 2.67095703 9.94140625 3.35546875 C7.31101372 6.85023956 5.40792858 9.51278557 5 14 C2.36 14 -0.28 14 -3 14 C-3 15.65 -3 17.3 -3 19 C-13.66666667 19 -24.33333333 19 -35 19 C-35 18.01 -35 17.02 -35 16 C-34.360625 16.185625 -33.72125 16.37125 -33.0625 16.5625 C-32.0415625 16.7790625 -32.0415625 16.7790625 -31 17 C-30.67 16.67 -30.34 16.34 -30 16 C-27.32941149 15.85884839 -24.67567762 15.95752893 -22 16 C-22 15.34 -22 14.68 -22 14 C-22.99 14 -23.98 14 -25 14 C-25 9.71 -25 5.42 -25 1 C-24.01 1 -23.02 1 -22 1 C-21.67 2.32 -21.34 3.64 -21 5 C-20.34 3.68 -19.68 2.36 -19 1 C-17.68 1 -16.36 1 -15 1 C-14.67 1.99 -14.34 2.98 -14 4 C-13.34 3.01 -12.68 2.02 -12 1 C-10.63875 1.2784375 -10.63875 1.2784375 -9.25 1.5625 C-6.27332338 1.96320647 -4.78896366 1.8263596 -2 1 C-1.505 1.495 -1.505 1.495 -1 2 C-0.67 1.34 -0.34 0.68 0 0 Z " fill="#07040B" transform="translate(84,63)"/>
<path d="M0 0 C2.625 -0.1875 2.625 -0.1875 5 0 C6.51537186 7.7527507 7.27990605 15.10042938 7 23 C6.01 23 5.02 23 4 23 C4 21.35 4 19.7 4 18 C1.03 18 -1.94 18 -5 18 C-5.33 19.65 -5.66 21.3 -6 23 C-7.65 23 -9.3 23 -11 23 C-9.54610631 19.72717539 -8.08612447 16.45710214 -6.625 13.1875 C-6.2125 12.25873047 -5.8 11.32996094 -5.375 10.37304688 C-4.97539062 9.48037109 -4.57578125 8.58769531 -4.1640625 7.66796875 C-3.79748535 6.84578857 -3.4309082 6.0236084 -3.05322266 5.17651367 C-2 3 -2 3 0 0 Z " fill="#442363" transform="translate(30,91)"/>
<path d="M0 0 C4.03583761 0.82364033 5.53868824 2.43312042 8.0625 5.625 C8.0625 6.615 8.0625 7.605 8.0625 8.625 C6.7425 8.625 5.4225 8.625 4.0625 8.625 C3.4025 7.635 2.7425 6.645 2.0625 5.625 C0.7425 5.625 -0.5775 5.625 -1.9375 5.625 C-1.9375 6.615 -1.9375 7.605 -1.9375 8.625 C-0.1466064 9.80318338 -0.1466064 9.80318338 2.0625 10.8125 C5.8731701 13.03145657 5.8731701 13.03145657 6.69921875 15.62109375 C6.76963236 18.57304906 6.58027841 20.92127021 4.80078125 23.33984375 C2.01344975 25.40058996 -0.4808141 25.09516732 -3.83984375 24.98046875 C-5.9375 24.625 -5.9375 24.625 -8 22.875 C-8.9375 20.625 -8.9375 20.625 -8.9375 16.625 C-7.6175 16.625 -6.2975 16.625 -4.9375 16.625 C-4.6075 17.615 -4.2775 18.605 -3.9375 19.625 C-1.9575 19.955 0.0225 20.285 2.0625 20.625 C1.03129787 16.91267232 0.33375639 15.79661119 -3 13.6875 C-5.9375 11.625 -5.9375 11.625 -7.0625 8.6875 C-6.9375 5.625 -6.9375 5.625 -5.375 2.75 C-2.9375 0.625 -2.9375 0.625 0 0 Z " fill="#432362" transform="translate(67.9375,89.375)"/>
<path d="M0 0 C2.375 1.25 2.375 1.25 4 3 C4 4.32 4 5.64 4 7 C3.443125 6.855625 2.88625 6.71125 2.3125 6.5625 C-0.11384195 5.97230872 -2.54906345 5.476571 -5 5 C-5 5.99 -5 6.98 -5 8 C-3.865625 8.61875 -2.73125 9.2375 -1.5625 9.875 C1.875 11.75 1.875 11.75 3 14 C3.46276151 20.36297071 3.46276151 20.36297071 1.765625 22.69921875 C-0.46049046 24.33925514 -1.75600985 24.4024399 -4.5 24.375 C-5.2734375 24.38273437 -6.046875 24.39046875 -6.84375 24.3984375 C-9.49824309 23.90793334 -10.39704522 23.14236179 -12 21 C-12.1875 18.3125 -12.1875 18.3125 -12 16 C-10.68 16 -9.36 16 -8 16 C-7.67 16.99 -7.34 17.98 -7 19 C-5.35 19 -3.7 19 -2 19 C-2 18.01 -2 17.02 -2 16 C-3.78113514 14.52807168 -3.78113514 14.52807168 -6 13.1875 C-9.90459682 10.39751327 -9.90459682 10.39751327 -10.75 6.875 C-9.19188469 0.90222463 -6.02038583 -0.87797293 0 0 Z " fill="#442362" transform="translate(53,90)"/>
<path d="M0 0 C2.375 1.8125 2.375 1.8125 4 4 C4 4.99 4 5.98 4 7 C2.68 7 1.36 7 0 7 C-0.33 6.34 -0.66 5.68 -1 5 C-2.32 5 -3.64 5 -5 5 C-5 5.99 -5 6.98 -5 8 C-3.21886486 9.47192832 -3.21886486 9.47192832 -1 10.8125 C2.91273828 13.6033558 2.91273828 13.6033558 3.6875 17.125 C2.51785714 22.01623377 2.51785714 22.01623377 0 24 C-3.06431924 24.50786669 -5.95008689 24.61329775 -9 24 C-10.76953125 22.640625 -10.76953125 22.640625 -12 21 C-12.1875 18.3125 -12.1875 18.3125 -12 16 C-10.68 16 -9.36 16 -8 16 C-8 17.32 -8 18.64 -8 20 C-6.02 19.67 -4.04 19.34 -2 19 C-2 18.01 -2 17.02 -2 16 C-3.95309888 14.59886384 -5.95708818 13.26660533 -8 12 C-10 10 -10 10 -10.375 7.125 C-10 4 -10 4 -8.375 1.625 C-5.28813568 -0.48706506 -3.6717087 -0.61195145 0 0 Z " fill="#442363" transform="translate(97,90)"/>
<path d="M0 0 C4.95 0 9.9 0 15 0 C15 1.32 15 2.64 15 4 C13.02 4 11.04 4 9 4 C8.86722656 5.03640625 8.73445313 6.0728125 8.59765625 7.140625 C8.41939361 8.51043265 8.24100138 9.88022344 8.0625 11.25 C7.93198242 12.27287109 7.93198242 12.27287109 7.79882812 13.31640625 C7.3684062 16.60036611 6.91205869 19.81190294 6 23 C4.68 23 3.36 23 2 23 C2.41044485 16.42208127 2.86608597 10.25948114 5 4 C3.02 4 1.04 4 -1 4 C-0.67 2.68 -0.34 1.36 0 0 Z " fill="#432362" transform="translate(105,91)"/>
<path d="M0 0 C0.99 0 1.98 0 3 0 C3.33 1.32 3.66 2.64 4 4 C4.66 2.68 5.32 1.36 6 0 C7.32 0 8.64 0 10 0 C10.33 0.99 10.66 1.98 11 3 C11.66 2.01 12.32 1.02 13 0 C13.99 0 14.98 0 16 0 C14.58707905 4.8274799 12.57025846 8.7162359 10 13 C9.01 13 8.02 13 7 13 C6.67 11.35 6.34 9.7 6 8 C5.566875 8.825 5.13375 9.65 4.6875 10.5 C3.8521875 11.7375 3.8521875 11.7375 3 13 C2.01 13 1.02 13 0 13 C0 8.71 0 4.42 0 0 Z " fill="#442362" transform="translate(59,64)"/>
<path d="M0 0 C1.32 0.33 2.64 0.66 4 1 C4 1.66 4 2.32 4 3 C5.98 3 7.96 3 10 3 C10.33 2.01 10.66 1.02 11 0 C12.99785435 4.1205746 13.17835515 7.45194365 13 12 C12.01 12 11.02 12 10 12 C10 10.35 10 8.7 10 7 C7.03 7 4.06 7 1 7 C0.67 8.65 0.34 10.3 0 12 C-1.65 12 -3.3 12 -5 12 C-3.35 8.04 -1.7 4.08 0 0 Z " fill="#462566" transform="translate(24,102)"/>
<path d="M0 0 C0 3.41678823 -0.69458534 4.55105928 -2.40625 7.44921875 C-2.90253906 8.29677734 -3.39882812 9.14433594 -3.91015625 10.01757812 C-4.69712891 11.33918945 -4.69712891 11.33918945 -5.5 12.6875 C-6.02464844 13.58017578 -6.54929687 14.47285156 -7.08984375 15.39257812 C-8.38746759 17.59853865 -9.6910272 19.80076113 -11 22 C-10.34 22.66 -9.68 23.32 -9 24 C-12.625 28.875 -12.625 28.875 -16 30 C-16.80668968 27.19560314 -17.24117909 25.59077507 -16.11962891 22.84350586 C-15.65991699 22.14104736 -15.20020508 21.43858887 -14.7265625 20.71484375 C-14.2315625 19.93689453 -13.7365625 19.15894531 -13.2265625 18.35742188 C-12.69804688 17.55884766 -12.16953125 16.76027344 -11.625 15.9375 C-10.59175051 14.34542623 -9.56292471 12.75047065 -8.5390625 11.15234375 C-8.07709473 10.45101318 -7.61512695 9.74968262 -7.13916016 9.02709961 C-5.90731461 7.05683309 -5.90731461 7.05683309 -5.50146484 4.84985352 C-5 3 -5 3 -2.4375 1.25 C-1.2309375 0.63125 -1.2309375 0.63125 0 0 Z " fill="#08040C" transform="translate(84,27)"/>
<path d="M0 0 C1.32 0 2.64 0 4 0 C3.41993763 7.75451806 2.37559416 15.34742277 1 23 C-0.32 23 -1.64 23 -3 23 C-2.57477229 15.1332874 -1.97537032 7.63809855 0 0 Z " fill="#432362" transform="translate(80,91)"/>
<path d="M0 0 C0.33 0 0.66 0 1 0 C1 1.98 1 3.96 1 6 C1.99 6.33 2.98 6.66 4 7 C3.67 8.32 3.34 9.64 3 11 C-3.27 11 -9.54 11 -16 11 C-16 10.01 -16 9.02 -16 8 C-15.360625 8.185625 -14.72125 8.37125 -14.0625 8.5625 C-13.0415625 8.7790625 -13.0415625 8.7790625 -12 9 C-11.67 8.67 -11.34 8.34 -11 8 C-8.32941149 7.85884839 -5.67567762 7.95752893 -3 8 C-2.87625 7.236875 -2.7525 6.47375 -2.625 5.6875 C-2 3 -2 3 0 0 Z " fill="#0D0713" transform="translate(65,71)"/>
<path d="M0 0 C-1.47458086 3.09875687 -3.21192985 5.92524682 -5.0625 8.8125 C-7.62651883 13.02347983 -8.78684961 16.09754103 -9 21 C-11.76264289 21.59732819 -14.16032769 22 -17 22 C-17 21.01 -17 20.02 -17 19 C-16.34 18.67 -15.68 18.34 -15 18 C-14.67 17.34 -14.34 16.68 -14 16 C-13.52949219 15.54753906 -13.05898438 15.09507813 -12.57421875 14.62890625 C-10.84642162 12.84108639 -9.89984678 11.1663526 -8.8125 8.9375 C-8.46832031 8.24527344 -8.12414062 7.55304687 -7.76953125 6.83984375 C-6.87137775 5.02486394 -6.87137775 5.02486394 -7 3 C-2.61538462 0 -2.61538462 0 0 0 Z " fill="#0A050F" transform="translate(76,29)"/>
<path d="M0 0 C0.99 0 1.98 0 3 0 C3.33 3.96 3.66 7.92 4 12 C3.01 12 2.02 12 1 12 C1 11.34 1 10.68 1 10 C-0.97536745 10.34786708 -0.97536745 10.34786708 -3 11 C-3.33 11.66 -3.66 12.32 -4 13 C-4.99 13 -5.98 13 -7 13 C-5.85828608 9.67865043 -4.34101632 6.70347797 -2.5625 3.6875 C-2.15128906 2.99011719 -1.74007812 2.29273437 -1.31640625 1.57421875 C-0.88199219 1.05472656 -0.44757813 0.53523438 0 0 Z " fill="#452465" transform="translate(79,64)"/>
<path d="M0 0 C2.64 0 5.28 0 8 0 C7.67 0.886875 7.34 1.77375 7 2.6875 C5.86753956 5.8620831 5.86753956 5.8620831 6 8.75 C6 9.4925 6 10.235 6 11 C4 13 4 13 1.375 13.125 C0.59125 13.08375 -0.1925 13.0425 -1 13 C-1.33 11.68 -1.66 10.36 -2 9 C0.475 9.495 0.475 9.495 3 10 C3 9.01 3 8.02 3 7 C2.34 7 1.68 7 1 7 C1.33 6.01 1.66 5.02 2 4 C1.34 3.67 0.68 3.34 0 3 C0 2.01 0 1.02 0 0 Z " fill="#442363" transform="translate(50,64)"/>
<path d="M0 0 C0.66 0.99 1.32 1.98 2 3 C2.66 2.01 3.32 1.02 4 0 C4.99 0 5.98 0 7 0 C5.58707905 4.8274799 3.57025846 8.7162359 1 13 C0.01 13 -0.98 13 -2 13 C-2.33 10.69 -2.66 8.38 -3 6 C-2.34 6 -1.68 6 -1 6 C-0.67 4.02 -0.34 2.04 0 0 Z " fill="#3E205A" transform="translate(68,64)"/>
<path d="M0 0 C0.99 0 1.98 0 3 0 C3 1.32 3 2.64 3 4 C3.66 4 4.32 4 5 4 C5.66 2.68 6.32 1.36 7 0 C7.99 0.33 8.98 0.66 10 1 C9.65066406 1.44730469 9.30132812 1.89460938 8.94140625 2.35546875 C6.31101372 5.85023956 4.40792858 8.51278557 4 13 C3.01 13 2.02 13 1 13 C0.67 8.71 0.34 4.42 0 0 Z " fill="#432361" transform="translate(85,64)"/>
<path d="M0 0 C3 1 3 1 5 4 C1.375 8.875 1.375 8.875 -2 10 C-3.06351675 6.61608307 -3.21442982 5.4195366 -1.5625 2.1875 C-1.046875 1.465625 -0.53125 0.74375 0 0 Z " fill="#100918" transform="translate(70,47)"/>
<path d="M0 0 C0 2.64 0 5.28 0 8 C-2.76264289 8.59732819 -5.16032769 9 -8 9 C-8 8.01 -8 7.02 -8 6 C-7.34 5.67 -6.68 5.34 -6 5 C-5.67 4.34 -5.34 3.68 -5 3 C-2.34615385 0 -2.34615385 0 0 0 Z " fill="#150B1F" transform="translate(67,42)"/>
<path d="M0 0 C0.9590625 0.2784375 0.9590625 0.2784375 1.9375 0.5625 C2.9584375 0.7790625 2.9584375 0.7790625 4 1 C4.33 0.67 4.66 0.34 5 0 C6.51928038 -0.07179964 8.04167482 -0.08392007 9.5625 -0.0625 C10.38878906 -0.05347656 11.21507812 -0.04445313 12.06640625 -0.03515625 C12.70449219 -0.02355469 13.34257813 -0.01195313 14 0 C14 0.99 14 1.98 14 3 C9.38 3 4.76 3 0 3 C0 2.01 0 1.02 0 0 Z " fill="#241435" transform="translate(49,79)"/>
<path d="M0 0 C4.95 0 9.9 0 15 0 C15 0.99 15 1.98 15 3 C13.02 3 11.04 3 9 3 C9 2.34 9 1.68 9 1 C7.68 1 6.36 1 5 1 C5 1.66 5 2.32 5 3 C3.35 3 1.7 3 0 3 C0 2.01 0 1.02 0 0 Z " fill="#4B276D" transform="translate(105,91)"/>
<path d="M0 0 C4.29 0 8.58 0 13 0 C13 0.99 13 1.98 13 3 C8.71 3 4.42 3 0 3 C0 2.01 0 1.02 0 0 Z " fill="#251435" transform="translate(82,79)"/>
<path d="M0 0 C1.32 0 2.64 0 4 0 C4 0.66 4 1.32 4 2 C5.98 2 7.96 2 10 2 C10 2.33 10 2.66 10 3 C8.02 3 6.04 3 4 3 C3.67 3.99 3.34 4.98 3 6 C2.01 5.67 1.02 5.34 0 5 C0 4.34 0 3.68 0 3 C-1.98 3 -3.96 3 -6 3 C-5.67 2.34 -5.34 1.68 -5 1 C-3.35 1.33 -1.7 1.66 0 2 C0 1.34 0 0.68 0 0 Z " fill="#3A1E54" transform="translate(110,92)"/>
<path d="M0 0 C0 4.02867919 -1.70343701 5.75779342 -4 9 C-4.99 10.485 -4.99 10.485 -6 12 C-6.66 11.67 -7.32 11.34 -8 11 C-7.1216227 6.43243804 -6.614517 4.47932326 -2.875 1.5625 C-1.92625 1.046875 -0.9775 0.53125 0 0 Z " fill="#0A050F" transform="translate(86,38)"/>
<path d="M0 0 C3.63 0 7.26 0 11 0 C11 0.99 11 1.98 11 3 C7.37 3 3.74 3 0 3 C0 2.01 0 1.02 0 0 Z " fill="#231333" transform="translate(70,79)"/>
<path d="M0 0 C0.33 0 0.66 0 1 0 C1.33 2.97 1.66 5.94 2 9 C0.35 9 -1.3 9 -3 9 C-2.01 6.03 -1.02 3.06 0 0 Z " fill="#09050E" transform="translate(31,96)"/>
<path d="M0 0 C-0.33 1.65 -0.66 3.3 -1 5 C-3.3125 5.625 -3.3125 5.625 -6 6 C-6.99 5.34 -7.98 4.68 -9 4 C-2.25 0 -2.25 0 0 0 Z " fill="#07040A" transform="translate(94,74)"/>
<path d="M0 0 C1.85776765 3.13498292 2.20140476 5.37471432 2 9 C1.01 9 0.02 9 -1 9 C-1 8.34 -1 7.68 -1 7 C-2.32 6.67 -3.64 6.34 -5 6 C-3.68 5.67 -2.36 5.34 -1 5 C-0.67 3.35 -0.34 1.7 0 0 Z " fill="#49266B" transform="translate(81,67)"/>
<path d="M0 0 C0.33 0.99 0.66 1.98 1 3 C-0.32 3.33 -1.64 3.66 -3 4 C-3.33 5.32 -3.66 6.64 -4 8 C-4.99 8 -5.98 8 -7 8 C-5.98823563 4.59679258 -5.35156418 3.24274669 -2.375 1.1875 C-1.59125 0.795625 -0.8075 0.40375 0 0 Z " fill="#381D51" transform="translate(79,69)"/>
</svg>
